<?xml version="1.0" encoding="UTF-8"?>
<svg id="_图层_1" data-name="图层 1" xmlns="http://www.w3.org/2000/svg" viewBox="0 0 98.55 98.55">
  <defs>
    <style>
      .cls-1 {
        stroke: #155294;
        stroke-miterlimit: 10;
        stroke-width: 1.5px;
      }

      .cls-1, .cls-2 {
        fill: #155294;
      }
    </style>
  </defs>
  <path class="cls-2" d="M49.28,0C22.11,0,0,22.1,0,49.28s22.11,49.28,49.28,49.28,49.28-22.11,49.28-49.28S76.45,0,49.28,0ZM49.28,95.91c-25.71,0-46.63-20.92-46.63-46.64S23.56,2.64,49.28,2.64s46.63,20.92,46.63,46.63-20.92,46.64-46.64,46.64Z"/>
  <path class="cls-2" d="M55.49,48.46h-2.53c-.39-.23-.7-2.35-.85-3.36-.38-2.63-.86-5.89-3.44-5.89-2.35,0-2.75,4.07-3.37,16.66-.3,6.01-.78,15.84-1.97,17.82-1.5-2.58-2.86-16.51-3.77-25.88-1.83-18.81-2.49-23.21-4.77-23.21-2.14,0-2.92,3.6-5.05,17.77-1.17,7.8-3.36,22.33-5.33,22.94-1.54,0-2.37-11.71-2.72-16.72-.8-11.31-1.4-17.71-4.56-17.71s-4.18,4.45-5.35,9.16c-.98,3.97-2.09,8.46-4.09,8.46h0s-.09,0-.13,0h-2.35v2.64h2.49c3.79,0,5.15-5.52,6.36-10.4.75-3.05,1.79-7.23,3-7.24,1.27.81,1.91,9.88,2.29,15.3.83,11.87,1.53,19.15,5.07,19.15s5.08-8.05,7.65-25.14c.78-5.17,1.79-11.92,2.66-14.63.9,3.39,1.81,12.79,2.5,19.92,2.14,22.04,3.2,28.45,6.06,28.45,3.04,0,3.67-6.26,4.37-20.53.26-5.17.6-12.1,1.29-13.99.42.56.68,2.36.85,3.5.36,2.49.81,5.58,3.2,5.58h2.51c.65,0,1.18-.59,1.18-1.32s-.53-1.32-1.18-1.32Z"/>
  <line class="cls-1" x1="79.77" y1="66.61" x2="75.8" y2="66.61"/>
  <line class="cls-1" x1="79.77" y1="71.05" x2="75.8" y2="71.05"/>
  <line class="cls-1" x1="76.55" y1="62.88" x2="76.55" y2="66.56"/>
  <line class="cls-1" x1="83.74" y1="62.13" x2="75.8" y2="62.13"/>
  <line class="cls-1" x1="83.74" y1="75.49" x2="75.8" y2="75.49"/>
  <line class="cls-1" x1="76.55" y1="71.09" x2="76.55" y2="74.77"/>
  <line class="cls-1" x1="84.48" y1="61.38" x2="84.48" y2="76.24"/>
  <line class="cls-1" x1="63.92" y1="66.61" x2="61.08" y2="66.61"/>
  <line class="cls-1" x1="63.92" y1="71.05" x2="61.08" y2="71.05"/>
  <line class="cls-1" x1="61.83" y1="62.88" x2="61.83" y2="66.56"/>
  <line class="cls-1" x1="69.02" y1="62.13" x2="61.08" y2="62.13"/>
  <line class="cls-1" x1="69.02" y1="75.49" x2="61.08" y2="75.49"/>
  <line class="cls-1" x1="61.83" y1="71.09" x2="61.83" y2="74.77"/>
  <line class="cls-1" x1="69.73" y1="61.38" x2="69.73" y2="76.24"/>
  <g>
    <line class="cls-1" x1="63.92" y1="30.94" x2="61.08" y2="30.94"/>
    <line class="cls-1" x1="63.92" y1="28.54" x2="61.08" y2="28.54"/>
    <line class="cls-1" x1="61.83" y1="23.72" x2="61.83" y2="28.54"/>
    <line class="cls-1" x1="69.02" y1="23.11" x2="61.08" y2="23.11"/>
    <line class="cls-1" x1="69.02" y1="36.47" x2="61.08" y2="36.47"/>
    <line class="cls-1" x1="61.83" y1="30.94" x2="61.83" y2="35.76"/>
    <line class="cls-1" x1="69.73" y1="22.36" x2="69.73" y2="37.22"/>
  </g>
  <g>
    <line class="cls-1" x1="79.77" y1="30.94" x2="75.8" y2="30.94"/>
    <line class="cls-1" x1="79.77" y1="28.53" x2="75.8" y2="28.53"/>
    <line class="cls-1" x1="76.55" y1="23.72" x2="76.55" y2="28.53"/>
    <line class="cls-1" x1="83.74" y1="23.11" x2="75.8" y2="23.11"/>
    <line class="cls-1" x1="83.74" y1="36.47" x2="75.8" y2="36.47"/>
    <line class="cls-1" x1="76.55" y1="30.94" x2="76.55" y2="35.75"/>
    <line class="cls-1" x1="84.48" y1="22.36" x2="84.48" y2="37.22"/>
  </g>
  <g>
    <line class="cls-1" x1="61.83" y1="43.35" x2="61.83" y2="47.31"/>
    <line class="cls-1" x1="69.02" y1="42.61" x2="61.08" y2="42.61"/>
    <line class="cls-1" x1="69.02" y1="55.96" x2="61.08" y2="55.96"/>
    <line class="cls-1" x1="61.83" y1="51.58" x2="61.83" y2="55.55"/>
    <line class="cls-1" x1="63.92" y1="47.8" x2="61.08" y2="47.8"/>
    <line class="cls-1" x1="63.92" y1="51.04" x2="61.08" y2="51.04"/>
    <line class="cls-1" x1="69.73" y1="41.86" x2="69.73" y2="56.71"/>
  </g>
  <g>
    <line class="cls-1" x1="83.74" y1="42.61" x2="75.8" y2="42.61"/>
    <line class="cls-1" x1="79.77" y1="50.71" x2="75.8" y2="50.71"/>
    <line class="cls-1" x1="79.77" y1="47.88" x2="75.8" y2="47.88"/>
    <line class="cls-1" x1="76.55" y1="43.35" x2="76.55" y2="47.88"/>
    <line class="cls-1" x1="83.74" y1="55.96" x2="75.8" y2="55.96"/>
    <line class="cls-1" x1="76.55" y1="50.71" x2="76.55" y2="55.24"/>
    <line class="cls-1" x1="84.48" y1="41.86" x2="84.48" y2="56.71"/>
  </g>
</svg>